<?xml version="1.0" encoding="iso-8859-1"?>
<!-- Uploaded to: SVG Repo, www.svgrepo.com, Generator: SVG Repo Mixer Tools -->
<svg fill="#000000" height="800px" width="800px" version="1.1" id="Layer_1" xmlns="http://www.w3.org/2000/svg" xmlns:xlink="http://www.w3.org/1999/xlink" 
	 viewBox="0 0 512 512" xml:space="preserve">
<g>
	<g>
		<path d="M269.506,0h-27.012c-10.171,0-18.417,8.471-18.417,18.642c0,1.105,0.114,2.231,0.301,3.459h63.245
			c0.187-1.228,0.301-2.354,0.301-3.459C287.923,8.471,279.677,0,269.506,0z"/>
	</g>
</g>
<g>
	<g>
		<path d="M128.158,128.921l11.422,342.118C140.354,494.19,159.104,512,182.27,512h147.463c23.163,0,41.913-17.81,42.686-40.961
			l11.422-342.118H128.158z M192.239,448.154c-0.082,0.001-0.165,0.002-0.246,0.002c-6.67,0-12.141-5.34-12.271-12.037
			l-4.085-208.346c-0.133-6.779,5.255-12.383,12.035-12.516c0.082-0.001,0.164-0.002,0.246-0.002c6.669,0,12.139,5.34,12.271,12.038
			l4.085,208.345C204.407,442.417,199.019,448.021,192.239,448.154z M268.278,435.875c0,6.781-5.498,12.278-12.278,12.278
			s-12.278-5.497-12.278-12.278V228.374c0-6.781,5.498-12.278,12.278-12.278s12.278,5.497,12.278,12.278V435.875z M332.277,436.12
			c-0.13,6.698-5.603,12.038-12.271,12.038c-0.081,0-0.163,0-0.246-0.003c-6.779-0.133-12.168-5.736-12.035-12.516l4.085-208.345
			c0.131-6.698,5.603-12.037,12.271-12.037c0.081,0,0.163,0,0.246,0.002c6.779,0.133,12.168,5.736,12.035,12.516L332.277,436.12z"/>
	</g>
</g>
<g>
	<g>
		<path d="M354.745,46.657h-197.49c-16.273,0-28.948,12.79-28.948,29.062v28.645h255.386V75.72
			C383.693,59.446,371.018,46.657,354.745,46.657z"/>
	</g>
</g>
</svg>